<svg width="30" height="30" viewBox="0 0 30 30" fill="none" xmlns="http://www.w3.org/2000/svg">
<circle cx="15" cy="15" r="15" fill="#D9D9D9"/>
<path d="M14.9999 8.33334C15.884 8.33334 16.7318 8.68453 17.3569 9.30965C17.9821 9.93478 18.3333 10.7826 18.3333 11.6667C18.3333 12.5507 17.9821 13.3986 17.3569 14.0237C16.7318 14.6488 15.884 15 14.9999 15C14.1159 15 13.268 14.6488 12.6429 14.0237C12.0178 13.3986 11.6666 12.5507 11.6666 11.6667C11.6666 10.7826 12.0178 9.93478 12.6429 9.30965C13.268 8.68453 14.1159 8.33334 14.9999 8.33334ZM14.9999 16.6667C18.6833 16.6667 21.6666 18.1583 21.6666 20V21.6667H8.33325V20C8.33325 18.1583 11.3166 16.6667 14.9999 16.6667Z" fill="#878787"/>
</svg>
